{
	"asset":{
		"generator":"Khronos glTF Blender I/O v5.1.19",
		"version":"2.0"
	},
	"scene":0,
	"scenes":[
		{
			"name":"Scene",
			"nodes":[
				0
			]
		}
	],
	"nodes":[
		{
			"mesh":0,
			"name":"Part 17",
			"translation":[
				-0.020999999716877937,
				0,
				0
			]
		}
	],
	"materials":[
		{
			"doubleSided":true,
			"name":"0.615686_0.811765_0.929412_0.000000_0.000000",
			"pbrMetallicRoughness":{
				"baseColorFactor":[
					0.615686297416687,
					0.8117647171020508,
					0.929411768913269,
					1
				],
				"metallicFactor":0
			}
		}
	],
	"meshes":[
		{
			"name":"mesh0_mesh",
			"primitives":[
				{
					"attributes":{
						"POSITION":0,
						"NORMAL":1,
						"TEXCOORD_0":2
					},
					"indices":3,
					"material":0
				}
			]
		}
	],
	"accessors":[
		{
			"bufferView":0,
			"componentType":5126,
			"count":17433,
			"max":[
				0.27072104811668396,
				0.044999998062849045,
				0.10164150595664978
			],
			"min":[
				-0.19512104988098145,
				0.008752993308007717,
				-0.08644517511129379
			],
			"type":"VEC3"
		},
		{
			"bufferView":1,
			"componentType":5126,
			"count":17433,
			"type":"VEC3"
		},
		{
			"bufferView":2,
			"componentType":5126,
			"count":17433,
			"type":"VEC2"
		},
		{
			"bufferView":3,
			"componentType":5123,
			"count":64542,
			"type":"SCALAR"
		}
	],
	"bufferViews":[
		{
			"buffer":0,
			"byteLength":209196,
			"byteOffset":0,
			"target":34962
		},
		{
			"buffer":0,
			"byteLength":209196,
			"byteOffset":209196,
			"target":34962
		},
		{
			"buffer":0,
			"byteLength":139464,
			"byteOffset":418392,
			"target":34962
		},
		{
			"buffer":0,
			"byteLength":129084,
			"byteOffset":557856,
			"target":34963
		}
	],
	"buffers":[
		{
			"byteLength":686940,
			"uri":"new_data.bin"
		}
	]
}
